<svg width="18" height="18" viewBox="0 0 18 18" fill="none" xmlns="http://www.w3.org/2000/svg">
<path d="M17.8443 17.082L13.47 12.7078C14.6434 11.3588 15.3538 9.59867 15.3538 7.67494C15.3538 3.44035 11.9095 0 7.67885 0C3.44426 0 0.00390625 3.44435 0.00390625 7.67494C0.00390625 11.9055 3.44825 15.3499 7.67885 15.3499C9.60258 15.3499 11.3627 14.6395 12.7117 13.4661L17.0859 17.8404C17.1897 17.9441 17.3294 18 17.4651 18C17.6008 18 17.7405 17.9481 17.8443 17.8404C18.0518 17.6328 18.0518 17.2896 17.8443 17.082ZM1.07752 7.67494C1.07752 4.03503 4.03894 1.07761 7.67486 1.07761C11.3148 1.07761 14.2722 4.03902 14.2722 7.67494C14.2722 11.3109 11.3148 14.2763 7.67486 14.2763C4.03894 14.2763 1.07752 11.3149 1.07752 7.67494Z" fill="#EBEBEB"/>
</svg>
