<svg width="16" height="18" viewBox="0 0 16 18" fill="none" xmlns="http://www.w3.org/2000/svg">
<path d="M7.93445 9.6989C7.95309 9.6989 7.97173 9.6989 7.99409 9.6989C8.00155 9.6989 8.009 9.6989 8.01646 9.6989C8.02764 9.6989 8.04255 9.6989 8.05373 9.6989C9.14588 9.68027 10.0293 9.29634 10.6816 8.56202C12.1167 6.94429 11.8781 4.17105 11.852 3.9064C11.7588 1.91965 10.8195 0.969145 10.0442 0.525575C9.46645 0.193829 8.79177 0.0149099 8.03882 0H8.01273C8.009 0 8.00155 0 7.99782 0H7.97546C7.56171 0 6.74912 0.0670946 5.97007 0.510665C5.1873 0.954235 4.23307 1.90474 4.13988 3.9064C4.11379 4.17105 3.87523 6.94429 5.31031 8.56202C5.95889 9.29634 6.8423 9.68027 7.93445 9.6989ZM5.13512 3.99959C5.13512 3.9884 5.13884 3.97722 5.13884 3.96977C5.26185 1.29716 7.15914 1.01015 7.97173 1.01015H7.98664C7.99409 1.01015 8.00528 1.01015 8.01646 1.01015C9.02288 1.03251 10.7338 1.44253 10.8493 3.96977C10.8493 3.98095 10.8493 3.99213 10.8531 3.99959C10.8568 4.02568 11.1177 6.56037 9.93238 7.8948C9.46272 8.4241 8.8365 8.68503 8.01273 8.69248C8.00528 8.69248 8.00155 8.69248 7.99409 8.69248C7.98664 8.69248 7.98291 8.69248 7.97546 8.69248C7.15541 8.68503 6.52547 8.4241 6.05953 7.8948C4.87792 6.56782 5.13139 4.02195 5.13512 3.99959Z" fill="#EBEBEB"/>
<path d="M15.6535 14.2987C15.6535 14.2949 15.6535 14.2912 15.6535 14.2875C15.6535 14.2577 15.6498 14.2278 15.6498 14.1943C15.6274 13.4563 15.579 11.7304 13.9612 11.1788C13.9501 11.175 13.9352 11.1713 13.924 11.1676C12.2429 10.7389 10.8451 9.76978 10.8302 9.7586C10.6028 9.59832 10.2897 9.65423 10.1294 9.88161C9.96912 10.109 10.025 10.4221 10.2524 10.5824C10.3158 10.6271 11.7993 11.6596 13.6556 12.1367C14.5241 12.4461 14.621 13.3743 14.6471 14.2241C14.6471 14.2577 14.6471 14.2875 14.6508 14.3173C14.6546 14.6528 14.6322 15.1709 14.5726 15.4691C13.9687 15.812 11.6018 16.9974 8.00101 16.9974C4.41517 16.9974 2.03331 15.8083 1.42573 15.4654C1.36609 15.1672 1.34 14.6491 1.34746 14.3136C1.34746 14.2838 1.35118 14.2539 1.35118 14.2204C1.37728 13.3705 1.47419 12.4424 2.34269 12.133C4.19898 11.6559 5.68252 10.6196 5.74588 10.5786C5.97326 10.4184 6.02917 10.1053 5.86889 9.87788C5.70861 9.6505 5.3955 9.59459 5.16812 9.75487C5.15321 9.76606 3.76286 10.7352 2.07432 11.1639C2.05941 11.1676 2.04822 11.1713 2.03704 11.175C0.419314 11.7304 0.370857 13.4563 0.348492 14.1906C0.348492 14.2241 0.348492 14.2539 0.344764 14.2838C0.344764 14.2875 0.344764 14.2912 0.344764 14.2949C0.341037 14.4888 0.33731 15.484 0.534866 15.9835C0.572141 16.0804 0.639236 16.1624 0.728695 16.2183C0.840519 16.2929 3.52058 18.0001 8.00474 18.0001C12.4889 18.0001 15.169 16.2891 15.2808 16.2183C15.3665 16.1624 15.4373 16.0804 15.4746 15.9835C15.661 15.4877 15.6573 14.4925 15.6535 14.2987Z" fill="#EBEBEB"/>
</svg>
