<svg width="214" height="57" viewBox="0 0 214 57" fill="none" xmlns="http://www.w3.org/2000/svg">
<path d="M50.4428 39.8864V17.1123C50.4431 16.1072 50.1812 15.1197 49.6833 14.249C49.1855 13.3784 48.4693 12.6553 47.6067 12.1525L28.0672 0.765471C27.2044 0.263192 26.2258 -0.0012207 25.2298 -0.0012207C24.2337 -0.0012207 23.2551 0.263192 22.3923 0.765471L2.85277 12.1525C1.98727 12.6534 1.26787 13.3756 0.767046 14.2463C0.266221 15.1171 0.00165538 16.1056 0 17.1123L0 39.8864C0.000525388 40.8917 0.263102 41.8792 0.761378 42.7498C1.25965 43.6203 1.9761 44.3434 2.83882 44.8463L22.3784 56.2333C23.2411 56.7356 24.2197 57 25.2158 57C26.2119 57 27.1904 56.7356 28.0532 56.2333L47.5928 44.8463C48.4576 44.3448 49.1762 43.6224 49.6765 42.7517C50.1768 41.8811 50.4411 40.8928 50.4428 39.8864Z" fill="white"/>
<path d="M46.0235 41.4304L26.6765 52.8203C26.5091 52.9168 26.3194 52.9671 26.1266 52.9661C25.9338 52.9652 25.7446 52.9129 25.5782 52.8147C25.4118 52.7164 25.274 52.5757 25.1786 52.4065C25.0833 52.2374 25.0338 52.046 25.0352 51.8514V5.81879C25.035 5.62045 25.086 5.42547 25.1831 5.25301C25.2802 5.08055 25.4201 4.93653 25.589 4.83511C25.7579 4.73369 25.9501 4.67835 26.1466 4.67453C26.3432 4.67071 26.5373 4.71853 26.71 4.81331L45.9955 15.9103C46.274 16.0715 46.5054 16.3041 46.6661 16.5845C46.8269 16.8649 46.9114 17.1832 46.9111 17.5072V39.8419C46.9134 40.1618 46.8326 40.4767 46.6769 40.7554C46.5212 41.0341 46.2959 41.2668 46.0235 41.4304Z" fill="#333333"/>
<path d="M76.5872 13.5811V28.8154H73.6339V18.9352L69.3827 26.0074H69.0393L64.7881 18.9662V28.8239H61.8125V13.5811H64.883L69.2236 20.7856L73.539 13.5811H76.5872Z" fill="white"/>
<path d="M82.3701 25.9426H88.7345V28.8154H79.3945V13.5811H88.6256V16.4539H82.3701V19.6956H88.0869V22.5318H82.3701V25.9426Z" fill="white"/>
<path d="M96.824 13.5811C97.793 13.5575 98.7561 13.7404 99.6503 14.118C100.544 14.4956 101.35 15.0593 102.013 15.7724C102.698 16.4926 103.234 17.3426 103.591 18.2732C103.948 19.2038 104.118 20.1966 104.093 21.1941C104.118 22.1912 103.947 23.1834 103.59 24.1136C103.233 25.0437 102.697 25.8932 102.013 26.613C101.35 27.3271 100.545 27.8919 99.651 28.2704C98.7568 28.649 97.7934 28.8328 96.824 28.8099H90.8281V13.5811H96.824ZM96.824 25.9427C97.4183 25.9649 98.0105 25.859 98.5611 25.6322C99.1117 25.4054 99.6081 25.0629 100.017 24.6274C100.836 23.7486 101.245 22.6061 101.245 21.1997C101.245 19.7934 100.836 18.6499 100.017 17.7692C99.6081 17.3338 99.1117 16.9912 98.5611 16.7644C98.0105 16.5376 97.4183 16.4318 96.824 16.4539H93.8037V25.9427H96.824Z" fill="white"/>
<path d="M115.374 28.8154L114.469 26.075H108.448L107.544 28.8154H104.328L109.615 13.5811H113.302L118.606 28.8154H115.374ZM109.4 23.2669H113.54L111.468 17.0397L109.4 23.2669Z" fill="white"/>
<path d="M128.36 28.8155L125.331 23.5261H123.065V28.8155H120.078V13.5811H126.119C126.778 13.5781 127.431 13.7066 128.04 13.9591C128.65 14.2116 129.204 14.5831 129.671 15.0524C130.138 15.5216 130.508 16.0794 130.761 16.6935C131.014 17.3077 131.143 17.9661 131.143 18.6311C131.149 19.5653 130.875 20.4794 130.356 21.2532C129.836 22.0486 129.104 22.6786 128.243 23.0698L131.592 28.8155H128.36ZM123.057 16.3891V20.8955H126.127C126.4 20.8961 126.67 20.8369 126.918 20.7222C127.166 20.6074 127.387 20.4398 127.565 20.2308C127.965 19.7975 128.183 19.2236 128.17 18.6311C128.183 18.0411 127.965 17.4697 127.565 17.0397C127.384 16.8335 127.162 16.6687 126.913 16.5564C126.664 16.4442 126.394 16.3871 126.121 16.3891H123.057Z" fill="white"/>
<path d="M147.408 20.9152C148.12 21.2164 148.731 21.7192 149.166 22.3629C149.606 23.0127 149.836 23.784 149.825 24.571C149.827 25.1291 149.72 25.6822 149.51 26.1983C149.299 26.7145 148.99 27.1834 148.599 27.5781C148.207 27.9727 147.743 28.2853 147.231 28.4976C146.72 28.71 146.171 28.818 145.618 28.8154H139.039V13.5811H145.121C146.196 13.5848 147.225 14.0171 147.985 14.7838C148.745 15.5504 149.174 16.5892 149.177 17.6734C149.202 18.325 149.05 18.9709 148.738 19.5421C148.426 20.1132 147.966 20.5878 147.408 20.9152ZM145.121 15.0175H140.549V20.3265H145.121C145.458 20.3316 145.792 20.2655 146.102 20.1326C146.413 19.9997 146.692 19.8029 146.922 19.5548C147.4 19.0492 147.668 18.3768 147.668 17.6776C147.668 16.9784 147.4 16.3061 146.922 15.8004C146.693 15.5499 146.414 15.3507 146.104 15.2158C145.794 15.0809 145.459 15.0133 145.121 15.0175ZM145.618 27.379C145.975 27.3845 146.33 27.3146 146.658 27.174C146.987 27.0333 147.283 26.825 147.528 26.5622C148.033 26.027 148.315 25.316 148.315 24.5766C148.315 23.8373 148.033 23.1263 147.528 22.591C147.285 22.3258 146.989 22.1151 146.66 21.9724C146.331 21.8298 145.976 21.7584 145.618 21.7629H140.549V27.379H145.618Z" fill="white"/>
<path d="M153.922 27.379H161.255V28.8154H152.406V13.5811H161.143V15.0175H153.922V20.4138H160.621V21.8502H153.922V27.379Z" fill="white"/>
<path d="M174.115 28.8154L172.719 25.0723H165.551L164.155 28.8154H162.559L168.362 13.5811H169.914L175.717 28.8154H174.115ZM166.087 23.6359H172.172L169.129 15.4681L166.087 23.6359Z" fill="white"/>
<path d="M186.668 27.6015C185.631 28.5873 184.279 29.0802 182.612 29.0802C180.944 29.0802 179.592 28.5873 178.556 27.6015C177.521 26.6139 177.004 25.2929 177.004 23.6387V13.5811H178.514V23.6359C178.514 24.8545 178.873 25.8196 179.592 26.5312C180.31 27.2429 181.317 27.5996 182.612 27.6015C183.914 27.6015 184.921 27.2457 185.632 26.5341C186.343 25.8224 186.702 24.8573 186.709 23.6387V13.5811H188.22V23.6359C188.22 25.2901 187.702 26.612 186.668 27.6015Z" fill="white"/>
<path d="M200.947 13.5811V15.0175H196.311V28.8182H194.801V15.0175H190.164V13.5811H200.947Z" fill="white"/>
<path d="M213.999 13.5811L208.541 22.5685V28.8154H207.031V22.5318L201.594 13.5811H203.299L207.807 21.0447L212.293 13.5811H213.999Z" fill="white"/>
<path d="M66.9915 43.4357V37.1239L62.7095 43.4357H62.0508V35.6819H62.8045V41.9964L67.0836 35.6819H67.7424V43.4357H66.9915Z" fill="white"/>
<path d="M73.2801 37.8987H74.0031V43.4359H73.2801V41.0222H70.1175V43.4359H69.3945V37.8987H70.1175V40.3124H73.2801V37.8987Z" fill="white"/>
<path d="M79.4902 37.8987V38.6056H77.5363V43.4359H76.8133V38.6056H74.8594V37.8987H79.4902Z" fill="white"/>
<path d="M82.6819 37.7662C83.0537 37.7532 83.4237 37.8244 83.7647 37.9745C84.1057 38.1246 84.4091 38.3499 84.6526 38.6337C85.1492 39.2 85.4172 39.9337 85.4035 40.6897C85.4035 40.7714 85.4035 40.8841 85.3839 41.0333H80.5632C80.6162 41.5544 80.871 42.0332 81.2722 42.3655C81.6909 42.7015 82.2143 42.8762 82.7489 42.8584C83.1252 42.869 83.4978 42.7796 83.8291 42.5993C84.1171 42.4419 84.3551 42.2056 84.5158 41.9177L85.1522 42.2951C84.9099 42.6875 84.569 43.0082 84.1641 43.2246C83.725 43.4586 83.2343 43.5768 82.7377 43.5682C82.3496 43.5835 81.9625 43.5187 81.6002 43.3778C81.2378 43.2368 80.9077 43.0227 80.6302 42.7486C80.3611 42.476 80.1502 42.1507 80.0105 41.7927C79.8708 41.4348 79.8053 41.0517 79.8179 40.6672C79.8071 40.2856 79.8725 39.9056 80.0101 39.55C80.1477 39.1944 80.3548 38.8703 80.6191 38.5971C80.8867 38.3214 81.2084 38.1052 81.5636 37.9621C81.9188 37.819 82.2997 37.7523 82.6819 37.7662ZM82.6819 38.4731C82.1624 38.4544 81.6551 38.6348 81.262 38.9781C80.869 39.3214 80.6193 39.8021 80.5632 40.3236H84.6582C84.615 39.7997 84.3754 39.3122 83.9882 38.9604C83.6279 38.64 83.1622 38.4663 82.6819 38.4731Z" fill="white"/>
<path d="M89.5007 37.7663C89.8743 37.7609 90.2451 37.8331 90.5899 37.9785C90.9346 38.1238 91.2461 38.3392 91.5049 38.6112C92.0348 39.1638 92.331 39.9026 92.331 40.6715C92.331 41.4403 92.0348 42.1791 91.5049 42.7317C91.246 43.0036 90.9345 43.2189 90.5898 43.3642C90.245 43.5096 89.8743 43.5819 89.5007 43.5767C89.0564 43.5951 88.6155 43.4914 88.2251 43.2766C87.8348 43.0618 87.5096 42.744 87.2843 42.3571V45.658H86.5586V37.8986H87.2843V38.983C87.5102 38.5969 87.8356 38.2798 88.2259 38.0655C88.6162 37.8513 89.0567 37.7478 89.5007 37.7663ZM87.9096 42.2219C88.3186 42.6292 88.8702 42.8576 89.4449 42.8576C90.0195 42.8576 90.5711 42.6292 90.9801 42.2219C91.2854 41.9152 91.4935 41.524 91.578 41.0978C91.6625 40.6716 91.6197 40.2296 91.4549 39.828C91.2901 39.4264 91.0109 39.0832 90.6525 38.842C90.2941 38.6008 89.8729 38.4724 89.4421 38.4732C89.1566 38.4676 88.8731 38.5212 88.609 38.6307C88.3449 38.7402 88.1059 38.9032 87.9068 39.1097C87.5097 39.5259 87.2879 40.0811 87.2879 40.6588C87.2879 41.2365 87.5097 41.7917 87.9068 42.2078L87.9096 42.2219Z" fill="white"/>
<path d="M97.4191 37.8987H98.142V43.4359H97.4191V41.0222H94.262V43.4359H93.5391V37.8987H94.262V40.3124H97.4191V37.8987Z" fill="white"/>
<path d="M102.218 37.7661C102.59 37.7545 102.959 37.8263 103.3 37.9763C103.641 38.1264 103.944 38.3508 104.189 38.6336C104.684 39.2006 104.952 39.9338 104.94 40.6896C104.938 40.8045 104.931 40.9192 104.917 41.0332H100.099C100.125 41.2914 100.201 41.542 100.322 41.7706C100.444 41.9992 100.609 42.2013 100.808 42.3654C101.227 42.7014 101.75 42.8761 102.285 42.8583C102.661 42.8689 103.034 42.7795 103.365 42.5992C103.653 42.4417 103.891 42.2055 104.052 41.9176L104.688 42.295C104.445 42.6867 104.104 43.0072 103.7 43.2244C103.261 43.4583 102.77 43.5764 102.274 43.568C101.886 43.5837 101.499 43.5191 101.136 43.3781C100.774 43.2372 100.444 43.0229 100.166 42.7484C99.6476 42.1839 99.3594 41.4425 99.3594 40.6727C99.3594 39.9029 99.6476 39.1615 100.166 38.5969C100.433 38.3227 100.753 38.1073 101.106 37.9643C101.459 37.8213 101.838 37.7538 102.218 37.7661ZM102.218 38.473C101.698 38.4543 101.191 38.6347 100.798 38.978C100.405 39.3213 100.155 39.802 100.099 40.3234H104.194C104.151 39.7996 103.912 39.312 103.524 38.9603C103.163 38.6415 102.698 38.468 102.218 38.473Z" fill="white"/>
<path d="M109.825 37.8987V38.6056H107.871V43.4359H107.145V38.6056H105.191V37.8987H109.825Z" fill="white"/>
<path d="M110.484 40.3687V39.6589H114.445V40.3687H110.484Z" fill="white"/>
<path d="M121.461 37.8987V43.4359H120.735V39.0168L118.815 42.1628H118.725L116.805 39.0168V43.4359H116.082V37.8987H116.919L118.773 40.932L120.629 37.8987H121.461Z" fill="white"/>
<path d="M127.716 37.8985H128.439V43.4357H127.716V42.3485C127.489 42.7377 127.162 43.0571 126.768 43.272C126.374 43.4869 125.93 43.5893 125.483 43.568C125.11 43.5732 124.74 43.5008 124.395 43.3555C124.051 43.2101 123.74 42.9949 123.482 42.7231C122.95 42.1715 122.652 41.4324 122.652 40.6628C122.652 39.8933 122.95 39.1541 123.482 38.6026C123.74 38.3307 124.051 38.1153 124.395 37.9699C124.74 37.8246 125.11 37.7523 125.483 37.7576C125.93 37.7364 126.374 37.8385 126.767 38.0529C127.161 38.2673 127.489 38.5858 127.716 38.9743V37.8985ZM124.018 42.2218C124.427 42.629 124.978 42.8574 125.553 42.8574C126.128 42.8574 126.679 42.629 127.088 42.2218C127.393 41.9151 127.602 41.5238 127.686 41.0976C127.771 40.6714 127.728 40.2294 127.563 39.8278C127.398 39.4262 127.119 39.0831 126.761 38.8419C126.402 38.6006 125.981 38.4723 125.55 38.473C125.265 38.4671 124.981 38.5205 124.717 38.63C124.453 38.7395 124.214 38.9028 124.015 39.1095C123.618 39.5257 123.396 40.0809 123.396 40.6586C123.396 41.2363 123.618 41.7915 124.015 42.2077L124.018 42.2218Z" fill="white"/>
<path d="M133.487 37.8987V38.6056H130.696V43.4359H129.973V37.8987H133.487Z" fill="white"/>
<path d="M138.864 37.8986H139.589V43.4358H138.864V42.3486C138.639 42.7359 138.314 43.054 137.923 43.2689C137.533 43.4838 137.092 43.5872 136.647 43.5682C136.274 43.5737 135.904 43.5015 135.559 43.3561C135.215 43.2107 134.904 42.9953 134.646 42.7232C134.114 42.1717 133.816 41.4325 133.816 40.663C133.816 39.8934 134.114 39.1543 134.646 38.6027C134.904 38.3305 135.215 38.115 135.559 37.9696C135.904 37.8242 136.274 37.7521 136.647 37.7578C137.091 37.7391 137.532 37.8424 137.922 38.0567C138.313 38.2709 138.638 38.5882 138.864 38.9745V37.8986ZM135.165 42.2219C135.468 42.5298 135.855 42.7396 136.277 42.8246C136.698 42.9096 137.135 42.8659 137.532 42.6991C137.929 42.5322 138.268 42.2498 138.505 41.8879C138.742 41.526 138.867 41.101 138.864 40.6672C138.861 40.3093 138.771 39.9576 138.602 39.643C138.433 39.3285 138.189 39.0607 137.893 38.8633C137.597 38.6659 137.258 38.545 136.905 38.5111C136.552 38.4773 136.196 38.5316 135.868 38.6692C135.541 38.8069 135.252 39.0236 135.027 39.3004C134.802 39.5772 134.648 39.9056 134.579 40.2565C134.509 40.6075 134.527 40.9703 134.629 41.3131C134.731 41.6558 134.915 41.9679 135.165 42.2219Z" fill="white"/>
<path d="M143.959 40.5882C144.242 40.6709 144.49 40.8465 144.663 41.0874C144.836 41.3282 144.924 41.6204 144.914 41.9176C144.915 42.14 144.869 42.3601 144.776 42.5621C144.684 42.7641 144.549 42.9432 144.38 43.0864C143.952 43.4324 143.41 43.6042 142.862 43.5681C141.757 43.5681 141.032 43.1249 140.688 42.2387L141.302 41.8725C141.528 42.5316 142.05 42.8583 142.862 42.8583C143.211 42.8804 143.557 42.781 143.842 42.5767C143.952 42.495 144.04 42.3879 144.101 42.2644C144.161 42.1409 144.191 42.0045 144.188 41.8669C144.192 41.7473 144.168 41.6284 144.12 41.5191C144.072 41.4098 143.999 41.313 143.909 41.236C143.69 41.0654 143.417 40.9794 143.141 40.9938H142.34V40.284H142.918C143.186 40.2994 143.45 40.2153 143.66 40.0475C143.752 39.965 143.824 39.8632 143.873 39.7493C143.921 39.6354 143.944 39.5122 143.939 39.3884C143.942 39.261 143.914 39.1349 143.859 39.0204C143.803 38.9059 143.722 38.8061 143.621 38.7293C143.375 38.5436 143.071 38.4509 142.764 38.4674C142.078 38.4674 141.62 38.7491 141.394 39.3124L140.788 38.9575C141.156 38.1689 141.812 37.7746 142.764 37.7746C143.27 37.7454 143.768 37.9093 144.16 38.2336C144.323 38.3712 144.454 38.5437 144.543 38.7385C144.631 38.9334 144.676 39.1458 144.674 39.3602C144.685 39.6127 144.623 39.8629 144.496 40.0808C144.369 40.2987 144.183 40.4749 143.959 40.5882Z" fill="white"/>
<path d="M150.006 37.8987H150.62V43.4359H149.897V39.1717L146.626 43.4359H146.012V37.8987H146.735V42.1628L150.006 37.8987Z" fill="white"/>
<path d="M156.036 37.8987H156.759V43.4359H156.036V41.0222H152.879V43.4359H152.156V37.8987H152.879V40.3124H156.036V37.8987Z" fill="white"/>
<path d="M165.481 43.4359H164.515L161.772 40.7659V43.4359H161.062V37.8987H161.785V40.3462L164.398 37.8987H165.386L162.539 40.5574L165.481 43.4359Z" fill="white"/>
<path d="M170.525 42.7316C169.976 43.2683 169.242 43.5684 168.478 43.5684C167.713 43.5684 166.979 43.2683 166.43 42.7316C165.892 42.1818 165.59 41.44 165.59 40.6671C165.59 39.8942 165.892 39.1525 166.43 38.6027C166.979 38.066 167.713 37.7659 168.478 37.7659C169.242 37.7659 169.976 38.066 170.525 38.6027C171.063 39.1525 171.365 39.8942 171.365 40.6671C171.365 41.44 171.063 42.1818 170.525 42.7316ZM166.941 42.2218C167.35 42.6291 167.901 42.8575 168.476 42.8575C169.051 42.8575 169.602 42.6291 170.011 42.2218C170.408 41.8057 170.63 41.2505 170.63 40.6728C170.63 40.0951 170.408 39.5399 170.011 39.1237C169.602 38.7164 169.051 38.488 168.476 38.488C167.901 38.488 167.35 38.7164 166.941 39.1237C166.544 39.5399 166.322 40.0951 166.322 40.6728C166.322 41.2505 166.544 41.8057 166.941 42.2218Z" fill="white"/>
<path d="M175.127 43.568C174.687 43.5653 174.253 43.4605 173.859 43.2617C173.465 43.0629 173.121 42.7754 172.855 42.4214C172.588 42.0674 172.406 41.6564 172.322 41.2201C172.238 40.7838 172.255 40.3339 172.371 39.905C172.486 39.4762 172.698 39.0799 172.99 38.7467C173.281 38.4136 173.645 38.1525 174.052 37.9837C174.46 37.8148 174.9 37.7426 175.34 37.7728C175.779 37.8029 176.206 37.9346 176.587 38.1575C177.004 38.4013 177.334 38.772 177.53 39.2166L176.939 39.5602C176.793 39.226 176.544 38.9484 176.23 38.7687C175.942 38.5975 175.618 38.4955 175.285 38.4706C174.952 38.4457 174.617 38.4986 174.307 38.6252C173.997 38.7518 173.72 38.9487 173.498 39.2006C173.276 39.4526 173.114 39.7528 173.025 40.078C172.936 40.4032 172.923 40.7446 172.986 41.0759C173.049 41.4072 173.187 41.7193 173.389 41.9882C173.591 42.257 173.851 42.4754 174.15 42.6262C174.449 42.7771 174.779 42.8565 175.113 42.8583C175.491 42.8651 175.864 42.7677 176.191 42.5766C176.518 42.3855 176.787 42.108 176.969 41.7739L177.572 42.1288C177.348 42.5696 177 42.9347 176.573 43.1793C176.134 43.4374 175.635 43.5717 175.127 43.568Z" fill="white"/>
<path d="M184.008 37.8987V43.4359H183.285V39.0168L181.362 42.1628H181.275L179.355 39.0168V43.4359H178.629V37.8987H179.466L181.323 40.932L183.176 37.8987H184.008Z" fill="white"/>
<path d="M188.078 37.7662C188.45 37.7533 188.819 37.8245 189.16 37.9746C189.5 38.1247 189.803 38.35 190.046 38.6337C190.543 39.1997 190.812 39.9334 190.8 40.6898C190.8 40.7714 190.8 40.8841 190.777 41.0334H185.959C185.985 41.2916 186.061 41.5422 186.182 41.7708C186.304 41.9994 186.469 42.2015 186.668 42.3656C187.086 42.7025 187.608 42.8773 188.142 42.8584C188.52 42.8694 188.893 42.78 189.225 42.5993C189.512 42.441 189.749 42.2049 189.909 41.9177L190.546 42.2952C190.304 42.6874 189.964 43.0081 189.56 43.2246C189.12 43.4587 188.629 43.5768 188.131 43.5682C187.743 43.5835 187.356 43.5187 186.994 43.3778C186.631 43.2369 186.301 43.0228 186.024 42.7486C185.506 42.1835 185.219 41.4423 185.219 40.6729C185.219 39.9034 185.506 39.1622 186.024 38.5971C186.29 38.3223 186.61 38.1064 186.964 37.9634C187.318 37.8203 187.697 37.7532 188.078 37.7662ZM188.078 38.4732C187.559 38.4545 187.051 38.6349 186.658 38.9782C186.265 39.3215 186.016 39.8022 185.959 40.3236H190.052C190.008 39.8004 189.77 39.3133 189.384 38.9604C189.023 38.6416 188.558 38.4682 188.078 38.4732Z" fill="white"/>
<path d="M195.673 37.8987V38.6056H193.719V43.4359H192.993V38.6056H191.039V37.8987H195.673Z" fill="white"/>
<path d="M200.557 37.8987H201.171V43.4359H200.448V39.1717L197.177 43.4359H196.562V37.8987H197.288V42.1628L200.557 37.8987Z" fill="white"/>
<path d="M207.14 43.4359H206.174L203.43 40.7659V43.4359H202.707V37.8987H203.43V40.3462L206.043 37.8987H207.031L204.2 40.5574L207.14 43.4359Z" fill="white"/>
<path d="M212.123 37.8987H212.74V43.4359H212.014V39.1717L208.743 43.4359H208.129V37.8987H208.855V42.1628L212.123 37.8987Z" fill="white"/>
<path d="M25.0391 40.3094C25.5533 40.2878 26.0521 40.1254 26.4819 39.8397C26.9117 39.5539 27.2562 39.1554 27.4787 38.6871L33.3964 27.4212V38.5857C33.4197 39.342 33.7339 40.0595 34.2724 40.5862C34.8108 41.1129 35.5313 41.4074 36.2813 41.4074C37.0312 41.4074 37.7517 41.1129 38.2902 40.5862C38.8287 40.0595 39.1428 39.342 39.1662 38.5857V17.4818C39.1803 17.131 39.1232 16.781 38.9986 16.4532C38.874 16.1254 38.6843 15.8267 38.4413 15.5754C38.1983 15.3241 37.907 15.1256 37.5852 14.9918C37.2635 14.8581 36.9181 14.792 36.5702 14.7977C35.409 14.7977 34.2841 15.7046 33.723 16.6876L25.0391 32.2993" fill="white"/>
<path d="M25.0399 40.3097C24.5276 40.2862 24.0311 40.1228 23.6035 39.8372C23.1759 39.5515 22.833 39.1541 22.6114 38.6874L16.6937 27.4215V38.586C16.6704 39.3424 16.3562 40.0599 15.8178 40.5865C15.2793 41.1132 14.5588 41.4077 13.8088 41.4077C13.0589 41.4077 12.3384 41.1132 11.7999 40.5865C11.2615 40.0599 10.9473 39.3424 10.924 38.586V17.4821C10.9099 17.1323 10.9666 16.7832 11.0906 16.4562C11.2145 16.1292 11.4032 15.831 11.645 15.5799C11.8868 15.3288 12.1768 15.13 12.4972 14.9955C12.8176 14.8611 13.1618 14.7939 13.5088 14.798C14.67 14.798 15.7949 15.7049 16.356 16.6879L25.0399 32.2997" fill="#262626"/>
<path d="M25.0399 40.3097C24.5276 40.2862 24.0311 40.1228 23.6035 39.8372C23.1759 39.5515 22.833 39.1541 22.6114 38.6874L16.6937 27.4215V38.586C16.6704 39.3424 16.3562 40.0599 15.8178 40.5865C15.2793 41.1132 14.5588 41.4077 13.8088 41.4077C13.0589 41.4077 12.3384 41.1132 11.7999 40.5865C11.2615 40.0599 10.9473 39.3424 10.924 38.586V17.4821C10.9099 17.1323 10.9666 16.7832 11.0906 16.4562C11.2145 16.1292 11.4032 15.831 11.645 15.5799C11.8868 15.3288 12.1768 15.13 12.4972 14.9955C12.8176 14.8611 13.1618 14.7939 13.5088 14.798C14.67 14.798 15.7949 15.7049 16.356 16.6879L25.0399 32.2997" fill="#333333"/>
</svg>
