<svg width="11" height="11" viewBox="0 0 11 11" fill="none" xmlns="http://www.w3.org/2000/svg">
<path d="M10.7534 8.69324L9.05461 6.99428C8.71625 6.65727 8.15591 6.66751 7.80575 7.01779L6.9499 7.87345C6.89583 7.84365 6.83987 7.81252 6.78102 7.7795C6.24056 7.48003 5.50085 7.06958 4.72245 6.29062C3.94175 5.51002 3.53092 4.76916 3.23055 4.22836C3.19885 4.17106 3.16848 4.11582 3.13849 4.06336L3.71289 3.48981L3.99529 3.20707C4.34598 2.85628 4.35565 2.2961 4.01807 1.95812L2.3193 0.258961C1.98172 -0.0785502 1.42113 -0.0683111 1.07044 0.282473L0.591667 0.763996L0.604751 0.776985C0.444211 0.98183 0.31006 1.21809 0.210229 1.47287C0.118203 1.71538 0.0609084 1.9468 0.0347102 2.1787C-0.189602 4.0383 0.660181 5.73784 2.96638 8.04407C6.15425 11.2317 8.72326 10.9909 8.83409 10.9792C9.07547 10.9503 9.3068 10.8926 9.54188 10.8013C9.79445 10.7027 10.0305 10.5687 10.2353 10.4085L10.2457 10.4178L10.7308 9.94286C11.0807 9.59214 11.0908 9.03176 10.7534 8.69324Z" fill="#54C5B0"/>
</svg>
