<svg width="24" height="22" viewBox="0 0 24 22" fill="none" xmlns="http://www.w3.org/2000/svg">
<path d="M23.9787 14.9497L23.4976 13.6283C23.4647 13.5379 23.3986 13.4693 23.318 13.431C23.3173 13.4307 23.3166 13.4303 23.3159 13.43C23.3107 13.4275 23.3052 13.4255 23.2998 13.4233C23.2947 13.4213 23.2898 13.4189 23.2846 13.4171C23.2834 13.4166 23.2821 13.4164 23.2808 13.416C23.2075 13.3909 23.1256 13.3895 23.0471 13.4181L21.8975 13.8362L19.452 7.11682C19.452 7.11663 19.4518 7.11649 19.4518 7.11635L18.4902 4.47411C18.4396 4.33583 18.3069 4.24297 18.1597 4.24297C18.119 4.24297 18.0782 4.25001 18.0397 4.26407C17.8574 4.33016 17.7632 4.53266 17.8293 4.71453L18.6712 7.02696L14.1564 8.6701C14.1564 8.6701 14.1563 8.6701 14.1562 8.67015C14.1561 8.6702 14.156 8.67029 14.1558 8.67029L11.4034 9.672L9.55958 4.60696L11.9824 3.72524L12.5035 5.15652C12.5536 5.2948 12.6863 5.38812 12.8335 5.38812C12.8747 5.38812 12.915 5.38109 12.9539 5.36652L14.7159 4.72527C14.804 4.69339 14.8743 4.62871 14.9142 4.54386C14.9436 4.48077 14.9532 4.41201 14.9434 4.34483C14.9434 4.34446 14.9434 4.34408 14.9433 4.34376C14.942 4.33461 14.94 4.32543 14.9379 4.31638C14.9373 4.3138 14.937 4.31137 14.9364 4.30879C14.9335 4.2974 14.93 4.2861 14.9259 4.27485L14.4051 2.84353L16.8274 1.96196L17.3483 3.39309C17.399 3.53137 17.5316 3.62465 17.6788 3.62465C17.7196 3.62465 17.7604 3.61762 17.7993 3.60309C17.9811 3.53699 18.0754 3.33492 18.0093 3.15262L17.368 1.39065C17.3237 1.26966 17.2167 1.18346 17.0919 1.16377C17.0741 1.16096 17.0559 1.15951 17.0376 1.15951C16.9968 1.15951 16.956 1.16654 16.9176 1.1806L13.8358 2.30236C13.8353 2.30255 13.8347 2.3026 13.8342 2.30278C13.8333 2.30311 13.8325 2.30358 13.8315 2.30391L12.0754 2.94319C12.0743 2.94356 12.0733 2.94365 12.0723 2.94403C12.0705 2.94469 12.0689 2.94553 12.0671 2.94619L8.98893 4.06663C8.90081 4.09851 8.83049 4.16319 8.79065 4.24804C8.75081 4.33335 8.74659 4.42893 8.77893 4.5171L10.8629 10.2431L12.8669 15.7495C12.6129 15.6719 12.3461 15.6283 12.0729 15.623L6.99596 1.67396C6.66446 0.76323 5.65384 0.291999 4.74302 0.623403C4.74288 0.62345 4.74274 0.623544 4.7426 0.62359L0.23217 2.25033C0.232123 2.25038 0.232029 2.25038 0.231936 2.25042C0.231701 2.25052 0.231467 2.25057 0.231186 2.25066C0.223076 2.25361 0.215389 2.25713 0.207655 2.2606C0.204701 2.26191 0.201608 2.26299 0.198701 2.26439C0.191108 2.268 0.183889 2.27222 0.17667 2.27635C0.173717 2.27803 0.170577 2.27949 0.16767 2.28131C0.160733 2.28553 0.154264 2.29022 0.147702 2.29486C0.144796 2.29692 0.141702 2.2988 0.138889 2.30091C0.132796 2.30555 0.127124 2.31056 0.121358 2.31558C0.118452 2.31816 0.115311 2.32046 0.112499 2.32308C0.107061 2.32805 0.102093 2.33353 0.0970302 2.33883C0.0942646 2.34178 0.0913115 2.34446 0.0886396 2.34746C0.0838584 2.35285 0.0794991 2.35861 0.075046 2.36428C0.0725147 2.36747 0.0697491 2.37056 0.0673585 2.37389C0.0633273 2.37942 0.0597648 2.38524 0.0560617 2.391C0.0536711 2.39475 0.0510461 2.39831 0.0487961 2.40211C0.0454211 2.40783 0.0425149 2.41383 0.039468 2.41974C0.0373587 2.42381 0.0350149 2.4278 0.0330462 2.43197C0.0303275 2.43778 0.0281243 2.44378 0.0256869 2.44974C0.0238588 2.45428 0.0217963 2.4586 0.0202025 2.46319C0.01814 2.469 0.0165463 2.475 0.0148119 2.48091C0.0133588 2.48578 0.0116713 2.49061 0.0104057 2.49558C0.00895259 2.50139 0.00796822 2.50739 0.00679635 2.5133C0.0057651 2.51845 0.00449949 2.52361 0.00370262 2.52881C0.00276512 2.53481 0.002437 2.54091 0.00182763 2.54695C0.00131201 2.5522 0.000515135 2.55745 0.000233887 2.56275C-9.42361e-05 2.56894 0.000140138 2.57513 0.000140138 2.58131C0.000140138 2.58661 -0.000141111 2.59191 9.32629e-05 2.5972C0.000374511 2.60348 0.00126513 2.60981 0.0018745 2.61609C0.00239012 2.6213 0.00267137 2.62655 0.00342137 2.6318C0.00435886 2.63803 0.00585885 2.64427 0.00712447 2.6505C0.00820259 2.6558 0.00899946 2.66114 0.010312 2.66644C0.0118588 2.67267 0.0140619 2.67881 0.0159838 2.685C0.0175775 2.69011 0.0188432 2.69531 0.0206713 2.70042C0.0207181 2.70052 0.020765 2.70066 0.0208119 2.70075C0.0208588 2.70098 0.0209056 2.70117 0.0209994 2.70141L0.501981 4.0228C0.50559 4.03274 0.510559 4.04179 0.514918 4.05121C0.51834 4.05852 0.521106 4.0663 0.524996 4.07329C0.530481 4.08318 0.53709 4.09199 0.543418 4.10123C0.547403 4.10699 0.550778 4.11332 0.55509 4.1188C0.562637 4.12851 0.571262 4.13713 0.579699 4.14585C0.583637 4.14993 0.587105 4.15457 0.59123 4.15846C0.600746 4.16741 0.611199 4.17519 0.621558 4.18298C0.625308 4.18583 0.628683 4.18916 0.632527 4.19179C0.64373 4.19952 0.65573 4.20604 0.66773 4.21237C0.671292 4.21424 0.674574 4.21668 0.678183 4.21846C0.690464 4.22446 0.703355 4.2291 0.716245 4.2336C0.719995 4.23491 0.723511 4.23679 0.727308 4.23801C0.740526 4.24218 0.75412 4.24485 0.767808 4.24747C0.771558 4.24818 0.775214 4.24949 0.779011 4.25005C0.796542 4.25282 0.814401 4.25418 0.832401 4.25418C0.842338 4.25418 0.852323 4.25371 0.862354 4.25291C0.864416 4.25273 0.866432 4.2523 0.868495 4.25212C0.876463 4.25127 0.884385 4.25038 0.892354 4.24902C0.89601 4.24837 0.899666 4.24738 0.903322 4.24663C0.909651 4.24532 0.915979 4.2441 0.92226 4.24241C0.928963 4.24068 0.935572 4.23838 0.942228 4.23618C0.945369 4.23519 0.94851 4.23435 0.951603 4.23322L0.951978 4.23308C0.952166 4.23304 0.952353 4.23294 0.952541 4.2329C0.952681 4.23285 0.952822 4.23276 0.952963 4.23271L5.13358 2.72484L10.0912 16.3454C9.20685 17.1189 8.83856 18.3856 9.26395 19.5543C9.68376 20.7076 10.7901 21.4826 12.0171 21.4826C12.3584 21.4826 12.6955 21.4229 13.0188 21.3052C13.7542 21.0376 14.3412 20.4997 14.672 19.7905C14.8478 19.4135 14.939 19.0122 14.9466 18.6084L23.7685 15.4003C23.7685 15.4003 23.7685 15.4003 23.7686 15.4003H23.7686C23.771 15.3994 23.7731 15.3983 23.7754 15.3974C23.7844 15.394 23.7932 15.3904 23.8017 15.3863C23.8053 15.3846 23.8087 15.3825 23.8122 15.3806C23.8192 15.377 23.8261 15.3735 23.8327 15.3694C23.8365 15.3671 23.8399 15.3644 23.8436 15.362C23.8496 15.358 23.8557 15.3541 23.8614 15.3498C23.8633 15.3483 23.8649 15.3468 23.8666 15.3453C23.8739 15.3396 23.881 15.3338 23.8877 15.3276C23.8889 15.3264 23.8899 15.3252 23.891 15.3241C23.8981 15.3173 23.905 15.3104 23.9115 15.3031C23.9129 15.3016 23.9139 15.3 23.9153 15.2985C23.9213 15.2913 23.9273 15.2841 23.9328 15.2766C23.9334 15.2758 23.9339 15.2749 23.9344 15.2741C23.9404 15.2657 23.9461 15.2571 23.9513 15.2483C23.9522 15.2467 23.953 15.2449 23.9539 15.2433C23.9586 15.2351 23.963 15.2269 23.967 15.2185C23.9685 15.2151 23.9698 15.2116 23.9712 15.2082C23.9742 15.2013 23.9772 15.1944 23.9798 15.1872C23.9815 15.1823 23.9828 15.1773 23.9843 15.1723C23.9861 15.1665 23.9881 15.1608 23.9895 15.1549C23.9917 15.1463 23.9933 15.1375 23.9948 15.1286C23.9952 15.1263 23.9958 15.1241 23.9962 15.1218C24.0045 15.0657 23.9994 15.0067 23.9787 14.9497ZM13.7445 3.084L14.145 4.18508L13.0438 4.58586L12.6431 3.48482L13.7445 3.084ZM15.8285 8.80993L16.2293 9.91093L15.1278 10.3118L14.7271 9.21076L15.8285 8.80993ZM11.6441 10.3328L14.0665 9.45118L14.5876 10.8825C14.6378 11.0207 14.7704 11.114 14.9181 11.114C14.9589 11.114 14.9992 11.1065 15.0381 11.0924L16.8 10.4512C16.9824 10.3851 17.0766 10.183 17.01 10.0007L16.489 8.56951L18.9118 7.68775L21.2371 14.0762L14.2228 16.6269C14.0911 16.4765 13.945 16.3399 13.7866 16.2198L11.6441 10.3328ZM5.67451 2.15485C5.67245 2.14922 5.66987 2.14393 5.66758 2.13839C5.66528 2.133 5.66322 2.12743 5.66069 2.12213C5.65839 2.1173 5.65567 2.11289 5.65319 2.10825C5.65009 2.10249 5.64714 2.09658 5.64376 2.09105C5.64142 2.08725 5.63875 2.08378 5.63626 2.08008C5.63228 2.07408 5.62844 2.06799 5.62408 2.06232C5.62183 2.05932 5.61925 2.05664 5.6169 2.05369C5.61203 2.04764 5.6072 2.0416 5.6019 2.03593C5.5998 2.03363 5.5974 2.03157 5.5952 2.02932C5.58939 2.02341 5.58362 2.0175 5.57744 2.01202C5.57565 2.01047 5.57373 2.00911 5.57195 2.00761C5.56511 2.00175 5.55817 1.99599 5.5509 1.99074C5.54987 1.98999 5.54875 1.98943 5.54772 1.98863C5.53956 1.98282 5.53122 1.97729 5.52259 1.97218C5.52194 1.9718 5.52123 1.97147 5.52058 1.97115C5.47258 1.94325 5.4182 1.9268 5.36195 1.92385C5.36144 1.92385 5.36097 1.9239 5.36045 1.92385C5.34958 1.92333 5.33866 1.92329 5.32764 1.9238C5.32562 1.9239 5.32361 1.92427 5.32159 1.92441C5.31213 1.92502 5.30266 1.92577 5.29319 1.92718C5.28864 1.92788 5.28414 1.929 5.27959 1.9299C5.27266 1.93116 5.26567 1.93233 5.25873 1.93407C5.25086 1.93604 5.24303 1.93871 5.2352 1.94119C5.23173 1.94232 5.22822 1.94316 5.22475 1.94438L5.22428 1.94457C5.22414 1.94461 5.22395 1.94466 5.22377 1.94471C5.22363 1.94475 5.22348 1.94485 5.22334 1.9449L1.04273 3.45276L0.802214 2.79202L4.98231 1.28434C4.98241 1.28429 4.98246 1.28424 4.98255 1.28424C4.98278 1.28415 4.98302 1.2841 4.9833 1.28401C5.52986 1.08512 6.13618 1.36787 6.33507 1.91438L11.3523 15.6992C11.2384 15.7258 11.1256 15.7588 11.0146 15.7993C10.9027 15.84 10.7953 15.8876 10.6917 15.9401L5.67451 2.15485ZM14.0346 19.4932C13.7833 20.0322 13.3371 20.4411 12.7783 20.6444C12.5322 20.734 12.276 20.7794 12.017 20.7794C11.0845 20.7794 10.2436 20.1904 9.9246 19.3137C9.50469 18.1601 10.1016 16.8799 11.2553 16.46C11.5014 16.3704 11.7575 16.325 12.0166 16.325C12.949 16.325 13.7899 16.914 14.109 17.7908C14.3124 18.3496 14.286 18.9542 14.0346 19.4932ZM14.8696 17.8881C14.8429 17.7745 14.8102 17.6617 14.7697 17.5503C14.7292 17.439 14.6821 17.3313 14.6293 17.2273L22.9571 14.1989L23.1976 14.8597L14.8696 17.8881Z" fill="#333333"/>
</svg>
