<svg width="34" height="35" viewBox="0 0 34 35" fill="none" xmlns="http://www.w3.org/2000/svg">
<g clip-path="url(#clip0)">
<path d="M17.0043 0.0141602C9.8917 0.0214516 4.12865 5.78749 4.125 12.9001C4.125 19.8204 16.0034 33.23 16.5072 33.7934C16.7514 34.0662 17.1705 34.0893 17.4432 33.8451C17.4614 33.8289 17.4786 33.8117 17.4949 33.7934C17.9987 33.2234 29.8771 19.8204 29.8771 12.9001C29.8734 5.79006 24.1143 0.0250973 17.0043 0.0141602ZM17.0043 32.3418C14.7374 29.6903 5.45072 18.5609 5.45072 12.8935C5.45072 6.51258 10.6234 1.33988 17.0043 1.33988C23.3853 1.33988 28.558 6.51258 28.558 12.8935C28.558 18.5609 19.2713 29.7036 17.0043 32.3418Z" fill="#333333"/>
<circle cx="17" cy="13" r="7" fill="#54C5B0"/>
</g>
<defs>
<clipPath id="clip0">
<rect width="34" height="34" fill="white" transform="translate(0 0.0141602)"/>
</clipPath>
</defs>
</svg>
