<svg width="29" height="29" viewBox="0 0 29 29" fill="none" xmlns="http://www.w3.org/2000/svg">
<path d="M6.76719 19.0917C5.16783 19.0917 3.86719 20.3923 3.86719 21.9917C3.86719 23.591 5.16783 24.8917 6.76719 24.8917C8.36655 24.8917 9.66719 23.591 9.66719 21.9917C9.66719 20.3923 8.36649 19.0917 6.76719 19.0917ZM6.76719 23.925C5.70093 23.925 4.83387 23.0579 4.83387 21.9917C4.83387 20.9254 5.70098 20.0584 6.76719 20.0584C7.83339 20.0584 8.7005 20.9255 8.7005 21.9917C8.7005 23.0579 7.83339 23.925 6.76719 23.925Z" fill="#333333"/>
<path d="M28.9236 16.4136L24.5736 9.64691C24.4847 9.50865 24.3315 9.42505 24.1671 9.42505H18.8505C18.5832 9.42505 18.3672 9.64159 18.3672 9.90836V21.9917C18.3672 22.259 18.5832 22.475 18.8505 22.475H20.7838V21.5083H19.3338V10.3917H23.9032L28.0338 16.8172V21.5084H25.6171V22.475H28.5171C28.7844 22.475 29.0004 22.259 29.0004 21.9917V16.675C29.0005 16.5827 28.9739 16.4914 28.9236 16.4136Z" fill="#54C5B0"/>
<path d="M23.2008 19.0917C21.6014 19.0917 20.3008 20.3923 20.3008 21.9917C20.3008 23.591 21.6014 24.8917 23.2008 24.8917C24.8001 24.8917 26.1008 23.591 26.1008 21.9917C26.1008 20.3923 24.8001 19.0917 23.2008 19.0917ZM23.2008 23.925C22.1345 23.925 21.2675 23.0579 21.2675 21.9917C21.2675 20.9254 22.1346 20.0584 23.2008 20.0584C24.267 20.0584 25.1341 20.9255 25.1341 21.9917C25.1341 23.0579 24.267 23.925 23.2008 23.925Z" fill="#333333"/>
<path d="M21.2674 15.7083V12.325H25.1341V11.3583H20.7841C20.5168 11.3583 20.3008 11.5748 20.3008 11.8416V16.1916C20.3008 16.4589 20.5168 16.6749 20.7841 16.6749H28.0341V15.7082H21.2674V15.7083Z" fill="#54C5B0"/>
<path d="M18.85 6.04175H0.483314C0.216537 6.04175 0 6.25828 0 6.52506V21.9917C0 22.259 0.216537 22.4751 0.483314 22.4751H4.35V21.5084H0.966686V7.00838H18.3667V21.5084H9.18331V22.4751H18.85C19.1173 22.4751 19.3333 22.259 19.3333 21.9917V6.52506C19.3333 6.25828 19.1173 6.04175 18.85 6.04175Z" fill="#333333"/>
<path d="M3.38437 19.575H0.484375V20.5416H3.38437V19.575Z" fill="black"/>
<path d="M18.3651 19.575H10.1484V20.5416H18.3651V19.575Z" fill="black"/>
<path d="M28.5192 19.575H26.5859V20.5416H28.5192V19.575Z" fill="#54C5B0"/>
<path d="M18.8503 7.97498H1.93359V8.94166H18.8503V7.97498Z" fill="black"/>
<path d="M7.24794 21.5083H6.28125V22.475H7.24794V21.5083Z" fill="#54C5B0"/>
<path d="M23.6854 21.5083H22.7188V22.475H23.6854V21.5083Z" fill="#54C5B0"/>
<path d="M8.70028 4.10828H1.93359V5.07496H8.70028V4.10828Z" fill="#54C5B0"/>
<path d="M0.966686 4.10828H0V5.07496H0.966686V4.10828Z" fill="#54C5B0"/>
</svg>
